<?xml version="1.0" encoding="UTF-8" standalone="no"?>
<svg
   xmlns:dc="http://purl.org/dc/elements/1.1/"
   xmlns:cc="http://creativecommons.org/ns#"
   xmlns:rdf="http://www.w3.org/1999/02/22-rdf-syntax-ns#"
   xmlns:svg="http://www.w3.org/2000/svg"
   xmlns="http://www.w3.org/2000/svg"
   xmlns:xlink="http://www.w3.org/1999/xlink"
   xmlns:sodipodi="http://sodipodi.sourceforge.net/DTD/sodipodi-0.dtd"
   xmlns:inkscape="http://www.inkscape.org/namespaces/inkscape"
   version="1.1"
   width="128px"
   height="128px"
   id="RSSicon"
   viewBox="0 0 256 256"
   inkscape:version="0.91 r13725"
   sodipodi:docname="avatar.svg"
   inkscape:export-filename="/home/leo/src/matrix/Matrix-RSSBot/rssbot.png"
   inkscape:export-xdpi="45.775864"
   inkscape:export-ydpi="45.775864">
  <metadata
     id="metadata34">
    <rdf:RDF>
      <cc:Work
         rdf:about="">
        <dc:format>image/svg+xml</dc:format>
        <dc:type
           rdf:resource="http://purl.org/dc/dcmitype/StillImage" />
      </cc:Work>
    </rdf:RDF>
  </metadata>
  <sodipodi:namedview
     pagecolor="#ffffff"
     bordercolor="#666666"
     borderopacity="1"
     objecttolerance="10"
     gridtolerance="10"
     guidetolerance="10"
     inkscape:pageopacity="0"
     inkscape:pageshadow="2"
     inkscape:window-width="1708"
     inkscape:window-height="900"
     id="namedview32"
     showgrid="false"
     inkscape:zoom="3.6875"
     inkscape:cx="59.42167"
     inkscape:cy="88.108119"
     inkscape:window-x="1578"
     inkscape:window-y="55"
     inkscape:window-maximized="0"
     inkscape:current-layer="RSSicon" />
  <defs
     id="defs3">
    <linearGradient
       id="linearGradient3876">
      <stop
         style="stop-color:#00b326;stop-opacity:1;"
         offset="0"
         id="stop3878" />
      <stop
         style="stop-color:#74ff92;stop-opacity:1;"
         offset="1"
         id="stop3880" />
    </linearGradient>
    <linearGradient
       x1="0.085"
       y1="0.085"
       x2="0.915"
       y2="0.915"
       id="RSSg">
      <stop
         offset="0.0"
         stop-color="#E3702D"
         id="stop6" />
      <stop
         offset="0.1071"
         stop-color="#EA7D31"
         id="stop8" />
      <stop
         offset="0.3503"
         stop-color="#F69537"
         id="stop10" />
      <stop
         offset="0.5"
         stop-color="#FB9E3A"
         id="stop12" />
      <stop
         offset="0.7016"
         stop-color="#EA7C31"
         id="stop14" />
      <stop
         offset="0.8866"
         stop-color="#DE642B"
         id="stop16" />
      <stop
         offset="1.0"
         stop-color="#D95B29"
         id="stop18" />
    </linearGradient>
    <linearGradient
       inkscape:collect="always"
       xlink:href="#RSSg"
       id="linearGradient3038"
       x1="30.06"
       y1="30.06"
       x2="225.94001"
       y2="225.94001"
       gradientUnits="userSpaceOnUse"
       gradientTransform="translate(-60.081632,14.367347)" />
    <linearGradient
       inkscape:collect="always"
       xlink:href="#linearGradient3876"
       id="linearGradient3882"
       x1="106.81729"
       y1="185.23463"
       x2="193.6801"
       y2="128.55667"
       gradientUnits="userSpaceOnUse" />
    <linearGradient
       inkscape:collect="always"
       xlink:href="#linearGradient3876"
       id="linearGradient3901"
       gradientUnits="userSpaceOnUse"
       x1="106.81729"
       y1="185.23463"
       x2="193.6801"
       y2="128.55667"
       gradientTransform="matrix(0.76184203,-0.64776285,0.64776285,0.76184203,-64.620805,138.27258)" />
  </defs>
  <rect
     style="color:#000000;fill:#ffffff;fill-opacity:1;fill-rule:nonzero;stroke:none;stroke-width:6;marker:none;visibility:visible;display:inline;overflow:visible;enable-background:accumulate"
     id="rect3886"
     width="252.20341"
     height="251.66101"
     x="1.6271197"
     y="2.1694911"
     rx="0"
     ry="124.50596" />
  <g
     id="g3893"
     transform="matrix(0.45359659,0,0,0.45327284,125.6307,116.91349)">
    <path
       inkscape:connector-curvature="0"
       id="path3040"
       d="m 48.964833,24.644662 -27.269917,0 0,204.733258 27.748337,0"
       style="fill:none;stroke:#000000;stroke-width:26.46467018;stroke-linecap:butt;stroke-linejoin:miter;stroke-miterlimit:4;stroke-dasharray:none;stroke-opacity:1" />
    <path
       inkscape:connector-curvature="0"
       id="path3040-9"
       d="m 205.40804,26.079706 27.26993,0 0,204.733264 -27.74834,0"
       style="fill:none;stroke:#000000;stroke-width:26.46467018;stroke-linecap:butt;stroke-linejoin:miter;stroke-miterlimit:4;stroke-dasharray:none;stroke-opacity:1" />
  </g>
  <g
     id="g3897"
     transform="matrix(0.76184203,0.64776285,-0.64776285,0.76184203,125.23937,-85.720197)">
    <path
       sodipodi:nodetypes="cccccccc"
       transform="scale(2,2)"
       inkscape:connector-curvature="0"
       id="path3828"
       d="m 47.186441,68.881356 43.661017,0 0,-7.864407 L 108.33898,78.508475 90.847458,96 l 0,-6.779661 -43.661017,0 z"
       style="fill:none;stroke:#005500;stroke-width:2.50000001;stroke-linecap:butt;stroke-linejoin:miter;stroke-opacity:1;stroke-miterlimit:4;stroke-dasharray:none" />
    <path
       style="fill:url(#linearGradient3901);fill-opacity:1;stroke:#5fd35f;stroke-width:4.00000002;stroke-linecap:butt;stroke-linejoin:miter;stroke-miterlimit:4;stroke-dasharray:none;stroke-opacity:1"
       d="m 184.46289,129.33789 c -0.0273,3.08811 0.086,6.1865 -0.17773,9.26563 -0.76727,1.72291 -2.89147,2.21576 -4.60743,1.98632 -27.50842,-0.0553 -55.01691,-0.0548 -82.525386,-0.0625 0,11.71094 0,23.42188 0,35.13282 29.104166,0 58.208336,0 87.312496,0 0,3.27929 0,6.55859 0,9.83789 9.46089,-9.5293 18.97374,-19.00674 28.48047,-28.49024 -9.50428,-9.46639 -19.01814,-18.92325 -28.48047,-28.43164 -6.5e-4,0.25391 -0.001,0.50781 -0.002,0.76172 z"
       id="path3830"
       inkscape:connector-curvature="0" />
  </g>
  <g
     id="g3030"
     transform="matrix(0.41525424,0,0,0.41525424,31.999999,33.084746)">
    <rect
       id="rect20"
       y="0"
       x="0"
       ry="55"
       rx="55"
       height="256"
       width="256"
       style="fill:#cc5d15" />
    <rect
       id="rect22"
       y="5"
       x="5"
       ry="50"
       rx="50"
       height="246"
       width="246"
       style="fill:#f49c52" />
    <rect
       id="rect24"
       y="10"
       x="10"
       ry="47"
       rx="47"
       height="236"
       width="236"
       style="fill:url(#linearGradient3038)" />
    <circle
       id="circle26"
       r="24"
       cy="189"
       cx="68"
       style="fill:#ffffff" />
    <path
       id="path28"
       d="m 160,213 -34,0 A 82,82 0 0 0 44,131 l 0,-34 a 116,116 0 0 1 116,116 z"
       inkscape:connector-curvature="0"
       style="fill:#ffffff" />
    <path
       id="path30"
       d="M 184,213 A 140,140 0 0 0 44,73 l 0,-35 a 175,175 0 0 1 175,175 z"
       inkscape:connector-curvature="0"
       style="fill:#ffffff" />
  </g>
</svg>
