<?xml version="1.0" encoding="UTF-8" standalone="no"?>
<svg
   xmlns:dc="http://purl.org/dc/elements/1.1/"
   xmlns:cc="http://creativecommons.org/ns#"
   xmlns:rdf="http://www.w3.org/1999/02/22-rdf-syntax-ns#"
   xmlns:svg="http://www.w3.org/2000/svg"
   xmlns="http://www.w3.org/2000/svg"
   xmlns:xlink="http://www.w3.org/1999/xlink"
   xmlns:sodipodi="http://sodipodi.sourceforge.net/DTD/sodipodi-0.dtd"
   xmlns:inkscape="http://www.inkscape.org/namespaces/inkscape"
   version="1.1"
   width="128px"
   height="128px"
   id="RSSicon"
   viewBox="0 0 256 256"
   inkscape:version="0.48.5 r10040"
   sodipodi:docname="rssbot.svg"
   inkscape:export-filename="/home/leo/src/matrix/Matrix-RSSBot/rssbot.png"
   inkscape:export-xdpi="90"
   inkscape:export-ydpi="90">
  <metadata
     id="metadata34">
    <rdf:RDF>
      <cc:Work
         rdf:about="">
        <dc:format>image/svg+xml</dc:format>
        <dc:type
           rdf:resource="http://purl.org/dc/dcmitype/StillImage" />
      </cc:Work>
    </rdf:RDF>
  </metadata>
  <sodipodi:namedview
     pagecolor="#ffffff"
     bordercolor="#666666"
     borderopacity="1"
     objecttolerance="10"
     gridtolerance="10"
     guidetolerance="10"
     inkscape:pageopacity="0"
     inkscape:pageshadow="2"
     inkscape:window-width="1263"
     inkscape:window-height="736"
     id="namedview32"
     showgrid="false"
     inkscape:zoom="3.6875"
     inkscape:cx="71.728814"
     inkscape:cy="66.440678"
     inkscape:window-x="9"
     inkscape:window-y="37"
     inkscape:window-maximized="0"
     inkscape:current-layer="RSSicon" />
  <defs
     id="defs3">
    <linearGradient
       id="linearGradient3876">
      <stop
         style="stop-color:#00b326;stop-opacity:1;"
         offset="0"
         id="stop3878" />
      <stop
         style="stop-color:#74ff92;stop-opacity:1;"
         offset="1"
         id="stop3880" />
    </linearGradient>
    <linearGradient
       x1="0.085"
       y1="0.085"
       x2="0.915"
       y2="0.915"
       id="RSSg">
      <stop
         offset="0.0"
         stop-color="#E3702D"
         id="stop6" />
      <stop
         offset="0.1071"
         stop-color="#EA7D31"
         id="stop8" />
      <stop
         offset="0.3503"
         stop-color="#F69537"
         id="stop10" />
      <stop
         offset="0.5"
         stop-color="#FB9E3A"
         id="stop12" />
      <stop
         offset="0.7016"
         stop-color="#EA7C31"
         id="stop14" />
      <stop
         offset="0.8866"
         stop-color="#DE642B"
         id="stop16" />
      <stop
         offset="1.0"
         stop-color="#D95B29"
         id="stop18" />
    </linearGradient>
    <linearGradient
       inkscape:collect="always"
       xlink:href="#RSSg"
       id="linearGradient3038"
       x1="30.06"
       y1="30.06"
       x2="225.94001"
       y2="225.94001"
       gradientUnits="userSpaceOnUse" />
    <linearGradient
       inkscape:collect="always"
       xlink:href="#linearGradient3876"
       id="linearGradient3882"
       x1="106.81729"
       y1="185.23463"
       x2="193.6801"
       y2="128.55667"
       gradientUnits="userSpaceOnUse" />
  </defs>
  <rect
     style="color:#000000;fill:#ffffff;fill-opacity:1;fill-rule:nonzero;stroke:none;stroke-width:6;marker:none;visibility:visible;display:inline;overflow:visible;enable-background:accumulate"
     id="rect3886"
     width="105.22035"
     height="103.05084"
     x="10.576271"
     y="12.203389"
     transform="scale(2,2)"
     rx="0"
     ry="50.983047" />
  <g
     id="g3030"
     transform="matrix(0.41525424,0,0,0.41525424,33.084746,52.067797)">
    <rect
       id="rect20"
       y="0"
       x="0"
       ry="55"
       rx="55"
       height="256"
       width="256"
       style="fill:#cc5d15" />
    <rect
       id="rect22"
       y="5"
       x="5"
       ry="50"
       rx="50"
       height="246"
       width="246"
       style="fill:#f49c52" />
    <rect
       id="rect24"
       y="10"
       x="10"
       ry="47"
       rx="47"
       height="236"
       width="236"
       style="fill:url(#linearGradient3038)" />
    <circle
       id="circle26"
       r="24"
       cy="189"
       cx="68"
       d="m 92,189 c 0,13.25483 -10.745166,24 -24,24 -13.254834,0 -24,-10.74517 -24,-24 0,-13.25483 10.745166,-24 24,-24 13.254834,0 24,10.74517 24,24 z"
       sodipodi:cx="68"
       sodipodi:cy="189"
       sodipodi:rx="24"
       sodipodi:ry="24"
       style="fill:#ffffff" />
    <path
       id="path28"
       d="M 160,213 H 126 A 82,82 0 0 0 44,131 V 97 a 116,116 0 0 1 116,116 z"
       inkscape:connector-curvature="0"
       style="fill:#ffffff" />
    <path
       id="path30"
       d="M 184,213 A 140,140 0 0 0 44,73 V 38 a 175,175 0 0 1 175,175 z"
       inkscape:connector-curvature="0"
       style="fill:#ffffff" />
  </g>
  <path
     style="fill:none;stroke:#000000;stroke-width:11.99999905;stroke-linecap:butt;stroke-linejoin:miter;stroke-miterlimit:4;stroke-opacity:1;stroke-dasharray:none"
     d="m 48.964833,24.644662 -27.269917,0 0,204.733258 27.748337,0"
     id="path3040"
     inkscape:connector-curvature="0" />
  <path
     style="fill:none;stroke:#000000;stroke-width:12;stroke-linecap:butt;stroke-linejoin:miter;stroke-miterlimit:4;stroke-opacity:1;stroke-dasharray:none"
     d="m 205.40804,26.079706 27.26993,0 0,204.733264 -27.74834,0"
     id="path3040-9"
     inkscape:connector-curvature="0" />
  <path
     style="fill:none;stroke:#005500;stroke-width:1px;stroke-linecap:butt;stroke-linejoin:miter;stroke-opacity:1"
     d="m 47.186441,68.881356 43.661017,0 0,-7.864407 L 108.33898,78.508475 90.847458,96 l 0,-6.779661 -43.661017,0 z"
     id="path3828"
     inkscape:connector-curvature="0"
     transform="scale(2,2)"
     sodipodi:nodetypes="cccccccc" />
  <path
     style="fill:url(#linearGradient3882);stroke:#5fd35f;stroke-width:2px;stroke-linecap:butt;stroke-linejoin:miter;stroke-opacity:1;fill-opacity:1"
     d="m 183.46875,126.40625 c -0.0264,3.89535 0.0596,7.80122 -0.0587,11.6899 -0.35647,1.22585 -1.83482,1.59131 -3.07253,1.4973 -28.06028,-0.10967 -56.12083,-0.0449 -84.18125,-0.0622 0,12.375 0,24.75 0,37.125 29.10417,0 58.20833,0 87.3125,0 0,3.75 0,7.5 0,11.25 7.85025,-7.9779 15.81466,-15.8479 23.71532,-23.77782 2.39929,-2.3728 4.74598,-4.80661 7.19093,-7.12843 -8.0312,-7.90857 -15.99659,-15.89639 -23.98149,-23.85649 -2.30793,-2.32898 -4.66453,-4.6131 -6.92476,-6.98726 0,0.0833 0,0.16667 0,0.25 z"
     id="path3830"
     inkscape:connector-curvature="0" />
</svg>
